External Loads File
version=1
nRows=69
nColumns=13
Range=5.000000e-03-10 seconds
endheader
time 	forceRightX 	forceRightY 	forceRightZ 	pointRightX 	pointRightY 	pointRightZ 	forceLeftX 	forceLeftY 	forceLeftZ 	pointLeftX 	pointLeftY 	pointLeftZ 		
7.505000 -25.259996 -25.777064 -0.000000 0.121073 0.406403 -0.125533 66.001706 760.641742 -0.000000 0.312005 0.196370 -0.363935
7.510000 -27.558103 -21.679964 -0.000000 0.128704 0.415024 -0.125783 88.655514 775.113625 -0.000000 0.304445 0.188498 -0.363881
7.515000 -30.365132 -16.650190 -0.000000 0.136764 0.422972 -0.126058 111.151051 787.982947 -0.000000 0.296519 0.181135 -0.363733
7.520000 -33.451161 -10.712406 -0.000000 0.145089 0.430310 -0.126434 133.172813 798.599674 -0.000000 0.288231 0.174343 -0.363587
7.525000 -36.640898 -4.047399 -0.000000 0.153881 0.436846 -0.126930 154.768735 806.246739 -0.000000 0.279708 0.168040 -0.363463
7.530000 -39.817477 3.089912 -0.000000 0.163114 0.442798 -0.126695 176.141942 810.223334 -0.000000 0.270964 0.162134 -0.363422
7.535000 -42.945944 10.373317 -0.000000 0.172166 0.448178 -0.127400 195.433890 810.359618 -0.000000 0.261973 0.156881 -0.363350
7.540000 -45.978866 17.895110 -0.000000 0.181850 0.452780 -0.127685 216.229096 805.259544 -0.000000 0.252886 0.148918 -0.363427
7.545000 -48.969657 25.509427 -0.000000 0.191857 0.456970 -0.127539 234.258738 795.538729 -0.000000 0.243651 0.142381 -0.363383
7.550000 -51.937142 33.346947 -0.000000 0.201895 0.460212 -0.127711 248.543074 781.289408 -0.000000 0.234263 0.138819 -0.363429
7.555000 -54.749341 41.693960 -0.000000 0.211941 0.462736 -0.127766 260.235195 762.013664 -0.000000 0.224861 0.136069 -0.363454
7.560000 -57.194788 50.757727 -0.000000 0.221992 0.464495 -0.127760 269.825031 737.408166 -0.000000 0.215320 0.140035 -0.363685
7.565000 -59.013945 60.662748 -0.000000 0.232227 0.465606 -0.127720 277.524265 707.416907 -0.000000 0.205989 0.138566 -0.363479
7.570000 -60.053874 71.345433 -0.000000 0.242006 0.465897 -0.127201 282.096317 672.914482 -0.000000 0.196512 0.137899 -0.363585
7.575000 -59.882869 82.927997 -0.000000 0.251973 0.465754 -0.126918 285.002670 634.118623 -0.000000 0.186872 0.138067 -0.363585
7.580000 -58.299980 95.297644 -0.000000 0.261542 0.465025 -0.126850 285.135533 592.603089 -0.000000 0.177103 0.139086 -0.363554
7.585000 -55.002838 108.464174 -0.000000 0.270845 0.463917 -0.126767 282.542450 549.485879 -0.000000 0.167344 0.140855 -0.363479
7.590000 -49.728964 122.486467 -0.000000 0.279726 0.462101 -0.126516 277.113330 505.613062 -0.000000 0.157694 0.143301 -0.363352
7.595000 -42.218103 137.568099 -0.000000 0.288159 0.459767 -0.126335 268.901288 461.172791 -0.000000 0.148174 0.146467 -0.363104
7.600000 -32.539901 154.047022 -0.000000 0.295994 0.456803 -0.126162 257.213720 416.209476 -0.000000 0.139274 0.150059 -0.362800
7.605000 -20.409378 172.614970 -0.000000 0.303300 0.453237 -0.126027 242.885051 369.435413 -0.000000 0.130696 0.154330 -0.362755
7.610000 -6.116787 194.031561 -0.000000 0.309888 0.449504 -0.125639 225.544253 320.146450 -0.000000 0.122571 0.159186 -0.362460
7.615000 10.243484 219.154203 -0.000000 0.315997 0.445363 -0.125610 205.748601 267.248127 -0.000000 0.114961 0.164609 -0.362017
7.620000 28.229690 248.638990 -0.000000 0.321463 0.440730 -0.125403 183.749590 210.367689 -0.000000 0.107838 0.170686 -0.361574
7.625000 47.360480 282.678415 -0.000000 0.326626 0.435424 -0.124650 159.988105 149.685168 -0.000000 0.101251 0.177300 -0.361250
7.630000 65.969644 320.981282 -0.000000 0.330680 0.429408 -0.124507 134.460992 86.539139 -0.000000 0.095308 0.184245 -0.361052
7.635000 83.592562 362.316281 -0.000000 0.334712 0.422671 -0.124106 107.800906 21.995784 -0.000000 0.089909 0.191514 -0.360882
7.640000 100.122636 404.708791 -0.000000 0.339112 0.414853 -0.123141 79.829115 -42.175301 -0.000000 0.084715 0.199209 -0.361131
7.645000 113.710066 446.348000 -0.000000 0.343007 0.406483 -0.122975 50.214140 -103.182411 -0.000000 0.079987 0.207481 -0.360953
7.650000 123.326944 485.336123 -0.000000 0.347133 0.397953 -0.122782 19.194998 -158.136471 -0.000000 0.076069 0.215949 -0.360650
7.655000 129.242829 519.779505 -0.000000 0.351125 0.388798 -0.122697 -12.646471 -204.090269 -0.000000 0.073165 0.224799 -0.360600
7.660000 129.882985 548.737833 -0.000000 0.354752 0.379318 -0.122371 -43.055345 -238.669876 -0.000000 0.071422 0.233108 -0.357186
7.665000 127.844615 570.860285 -0.000000 0.357809 0.369293 -0.121956 -70.708577 -260.538896 -0.000000 0.069608 0.241571 -0.361002
7.670000 122.925071 586.202045 -0.000000 0.360338 0.359055 -0.121823 -93.018983 -269.888465 -0.000000 0.068305 0.250189 -0.361044
7.675000 116.304331 595.245017 -0.000000 0.362586 0.348641 -0.121828 -108.431349 -268.034218 -0.000000 0.067105 0.259222 -0.360855
7.680000 108.831478 599.186171 -0.000000 0.364321 0.337895 -0.121391 -116.023326 -257.162686 -0.000000 0.065745 0.268842 -0.359559
7.685000 100.646071 599.739601 -0.000000 0.365552 0.326696 -0.121061 -115.508556 -240.020187 -0.000000 0.065034 0.278991 -0.359558
7.690000 91.568049 598.721501 -0.000000 0.366168 0.315423 -0.120790 -107.428461 -219.416073 -0.000000 0.064584 0.289459 -0.359556
7.695000 82.323599 597.506050 -0.000000 0.367020 0.304301 -0.121139 -93.400047 -197.561971 -0.000000 0.064508 0.300211 -0.359560
7.700000 74.006194 596.917664 -0.000000 0.367124 0.293230 -0.121160 -75.490796 -175.881567 -0.000000 0.064995 0.311066 -0.359539
7.705000 67.473705 597.341867 -0.000000 0.365973 0.282245 -0.122128 -55.626427 -155.075145 -0.000000 0.066135 0.321730 -0.359721
7.710000 63.370364 598.851336 -0.000000 0.364501 0.271440 -0.122350 -35.310480 -135.320771 -0.000000 0.067847 0.332208 -0.359890
7.715000 62.481651 601.254303 -0.000000 0.362268 0.260799 -0.122277 -15.579664 -116.511587 -0.000000 0.070348 0.342459 -0.360090
7.720000 65.162959 604.212744 -0.000000 0.359980 0.250734 -0.121749 3.036804 -98.536096 -0.000000 0.073563 0.353123 -0.360373
7.725000 70.624885 607.401793 -0.000000 0.356585 0.240073 -0.121774 20.334960 -81.450197 -0.000000 0.077377 0.362324 -0.360594
7.730000 79.564931 610.303216 -0.000000 0.352753 0.230120 -0.121669 35.836927 -65.617873 -0.000000 0.081947 0.371966 -0.360942
7.735000 90.926791 612.621325 -0.000000 0.347922 0.220474 -0.121772 49.244349 -51.559694 -0.000000 0.087039 0.381116 -0.361130
7.740000 104.448144 614.021500 -0.000000 0.342662 0.211025 -0.121089 60.127312 -39.857561 -0.000000 0.092821 0.389988 -0.361357
7.745000 119.912269 614.225597 -0.000000 0.336191 0.201949 -0.121243 68.056847 -31.065134 -0.000000 0.099240 0.398352 -0.361642
7.750000 136.795761 613.101156 -0.000000 0.329774 0.193054 -0.121920 72.575138 -25.595125 -0.000000 0.106327 0.406949 -0.361833
7.755000 151.793555 611.307281 -0.000000 0.323733 0.184601 -0.121480 73.277370 -23.311391 -0.000000 0.114016 0.414514 -0.361957
7.760000 166.198619 608.634267 -0.000000 0.317424 0.176811 -0.121290 69.599569 -24.379369 -0.000000 0.122306 0.421759 -0.361917
7.765000 181.499556 604.804517 -0.000000 0.309877 0.169267 -0.121142 61.099997 -28.729121 -0.000000 0.131212 0.428438 -0.362062
7.770000 195.657165 600.692619 -0.000000 0.302054 0.161879 -0.120894 47.707729 -35.692939 -0.000000 0.140494 0.434533 -0.361938
7.775000 208.704533 596.721152 -0.000000 0.293844 0.155693 -0.120745 29.611405 -44.804780 -0.000000 0.150431 0.440538 -0.361776
7.780000 219.216303 593.782589 -0.000000 0.285875 0.149580 -0.120013 7.457352 -55.617503 -0.000000 0.160723 0.445231 -0.361765
7.785000 231.382407 590.541792 -0.000000 0.275959 0.143997 -0.120912 -18.397919 -67.742766 -0.000000 0.171292 0.449578 -0.361833
7.790000 239.959960 589.004909 -0.000000 0.267530 0.138938 -0.120377 -46.461334 -80.595814 -0.000000 0.182381 0.453248 -0.362100
7.795000 247.561904 587.976758 -0.000000 0.258492 0.134359 -0.120179 -75.759609 -93.316510 -0.000000 0.193133 0.456582 -0.361854
7.800000 254.400142 586.877166 -0.000000 0.249327 0.130850 -0.119963 -104.839599 -104.762167 -0.000000 0.204078 0.459326 -0.361977
7.805000 260.605912 584.911933 -0.000000 0.240014 0.127233 -0.119681 -132.101296 -113.670394 -0.000000 0.214998 0.460965 -0.362028
7.810000 266.138370 581.232144 -0.000000 0.230327 0.124591 -0.119424 -155.928183 -118.873596 -0.000000 0.225631 0.462812 -0.362088
7.815000 270.360097 575.258408 -0.000000 0.220737 0.122777 -0.119130 -174.757180 -119.697883 -0.000000 0.236193 0.464212 -0.362085
7.820000 273.272844 566.170460 -0.000000 0.211209 0.121583 -0.118894 -187.563263 -115.781023 -0.000000 0.246824 0.464981 -0.361706
7.825000 273.514854 553.917448 -0.000000 0.201607 0.120974 -0.118683 -193.662922 -107.675220 -0.000000 0.256751 0.465194 -0.361752
7.830000 271.247969 537.912520 -0.000000 0.192053 0.121129 -0.118539 -193.342496 -95.836966 -0.000000 0.266480 0.465877 -0.362273
7.835000 266.988430 517.485139 -0.000000 0.182854 0.121989 -0.118232 -187.434249 -80.808338 -0.000000 0.276151 0.464818 -0.362334
7.840000 261.369309 491.809142 -0.000000 0.173195 0.123528 -0.118502 -177.026889 -63.121108 -0.000000 0.285619 0.463475 -0.362480
7.845000 252.629178 461.196261 -0.000000 0.164178 0.125804 -0.118334 -162.982289 -44.044519 -0.000000 0.294476 0.461671 -0.362776
